<?xml version="1.0" encoding="UTF-8"?>
<svg xmlns="http://www.w3.org/2000/svg" xmlns:xlink="http://www.w3.org/1999/xlink" viewBox="0 0 32 32" width="32px" height="32px">
<g id="surface74877015">
<path style=" stroke:none;fill-rule:nonzero;fill:rgb(20.392157%,59.607846%,85.882354%);fill-opacity:1;" d="M 5 4 C 3.5 6 4 9.25 4.734375 10.203125 C 3.046875 11.976562 2.015625 14.375 2.015625 17.46875 C 2 23.75 6.953125 28 16.007812 28 C 25.0625 28 30 23.75 30 17.46875 C 30 14.273438 29.015625 11.875 27.40625 10.140625 C 28 9.25 28.5 6 27 4 C 23.25 4 21 6.75 21 6.75 C 21 6.75 19.25 6 16 6 C 12.75 6 10.992188 6.796875 10.992188 6.796875 C 10.992188 6.796875 8.75 4 5 4 Z M 10.5 15 C 12.929688 15 13.015625 15.953125 15.828125 15.992188 C 15.890625 15.992188 15.960938 15.984375 16.03125 15.984375 C 16.140625 15.984375 16.296875 15.984375 16.429688 15.984375 C 18.976562 15.882812 19.148438 15 21.5 15 C 23.984375 15 26 17.015625 26 19.5 C 26 21.070312 26 26 16 26 C 6 26 6 21.195312 6 19.5 C 6 17.015625 8.015625 15 10.5 15 Z M 11 18 C 10.445312 18 10 18.898438 10 20 C 10 21.101562 10.445312 22 11 22 C 11.554688 22 12 21.101562 12 20 C 12 18.898438 11.554688 18 11 18 Z M 21 18 C 20.445312 18 20 18.898438 20 20 C 20 21.101562 20.445312 22 21 22 C 21.554688 22 22 21.101562 22 20 C 22 18.898438 21.554688 18 21 18 Z M 21 18 "/>
</g>
</svg>
