<svg fill="#000000" xmlns="http://www.w3.org/2000/svg"  viewBox="0 0 16 16" width="32px" height="32px"><path d="M 2.5 2 C 1.75 3 2 4.625 2.367188 5.101563 C 1.523438 5.988281 1.007813 7.1875 1.007813 8.734375 C 1 11.875 3.476563 14 8.003906 14 C 12.53125 14 15 11.875 15 8.734375 C 15 7.136719 14.507813 5.9375 13.703125 5.070313 C 14 4.625 14.25 3 13.5 2 C 11.625 2 10.5 3.375 10.5 3.375 C 10.5 3.375 9.625 3 8 3 C 6.375 3 5.496094 3.398438 5.496094 3.398438 C 5.496094 3.398438 4.375 2 2.5 2 Z M 5.25 7.5 C 6.464844 7.5 6.507813 7.976563 7.914063 7.996094 C 7.945313 7.996094 7.980469 7.992188 8.015625 7.992188 C 8.070313 7.992188 8.148438 7.992188 8.214844 7.992188 C 9.488281 7.941406 9.574219 7.5 10.75 7.5 C 11.992188 7.5 13 8.507813 13 9.75 C 13 10.535156 13 13 8 13 C 3 13 3 10.597656 3 9.75 C 3 8.507813 4.007813 7.5 5.25 7.5 Z M 5.5 9 C 5.222656 9 5 9.449219 5 10 C 5 10.550781 5.222656 11 5.5 11 C 5.777344 11 6 10.550781 6 10 C 6 9.449219 5.777344 9 5.5 9 Z M 10.5 9 C 10.222656 9 10 9.449219 10 10 C 10 10.550781 10.222656 11 10.5 11 C 10.777344 11 11 10.550781 11 10 C 11 9.449219 10.777344 9 10.5 9 Z"/></svg>